<?xml version="1.0" standalone="no"?><!DOCTYPE svg PUBLIC "-//W3C//DTD SVG 1.1//EN" "http://www.w3.org/Graphics/SVG/1.1/DTD/svg11.dtd"><svg t="1702988880670" class="icon" viewBox="0 0 1024 1024" version="1.1" xmlns="http://www.w3.org/2000/svg" p-id="4440" xmlns:xlink="http://www.w3.org/1999/xlink" width="200" height="200"><path d="M493.44 89.52a64 64 0 0 1 32.547-1.203l4.573 1.204 320 96.97c25.7 7.787 43.663 30.72 45.316 57.245l0.124 4.004v349.593c0 157.585-125.002 269.655-365.215 337.333L512 939.836l-8.42-2.297c-243.503-66.41-371.934-177.195-375.503-333.48l-0.077-6.726V247.74c0-26.854 16.738-50.696 41.644-59.97l3.796-1.28 320-96.97zM512 150.77l-320 96.97v349.593c0 118.857 96.503 209.149 298.375 269.857l9.85 2.914L512 873.451l11.775-3.347C725.683 811.33 825.51 723.92 831.693 608.84l0.232-5.777 0.075-5.729V247.74l-320-96.97z m116.04 221.27l45.254 45.254L480 610.588 350.706 481.294l45.255-45.255L480 520.085 628.04 372.04z" fill="#d81e06" p-id="4441"></path></svg>