<?xml version="1.0" standalone="no"?><!DOCTYPE svg PUBLIC "-//W3C//DTD SVG 1.1//EN" "http://www.w3.org/Graphics/SVG/1.1/DTD/svg11.dtd"><svg t="1702017329704" class="icon" viewBox="0 0 1024 1024" version="1.1" xmlns="http://www.w3.org/2000/svg" p-id="2733" xmlns:xlink="http://www.w3.org/1999/xlink" width="200" height="200"><path d="M678.4 285.866667c23.466667-32 25.6-74.666667 8.533333-110.933334-19.2-36.266667-55.466667-57.6-96-57.6H241.066667c-40.533333 0-76.8 21.333333-96 57.6-17.066667 36.266667-12.8 78.933333 10.666666 110.933334l117.333334 164.266666v285.866667c0 14.933333 8.533333 29.866667 23.466666 38.4l202.666667 106.666667c6.4 4.266667 12.8 4.266667 19.2 4.266666 8.533333 0 14.933333-2.133333 21.333333-6.4 12.8-8.533333 21.333333-21.333333 21.333334-36.266666V450.133333l117.333333-164.266666z m-196.266667 128c-4.266667 6.4-8.533333 14.933333-8.533333 25.6v334.933333l-117.333333-61.866667V439.466667c0-8.533333-2.133333-17.066667-8.533334-25.6l-125.866666-177.066667c-6.4-8.533333-4.266667-19.2-2.133334-21.333333 2.133333-4.266667 6.4-10.666667 19.2-10.666667h349.866667c10.666667 0 17.066667 8.533333 19.2 10.666667 2.133333 4.266667 4.266667 12.8-2.133333 21.333333l-123.733334 177.066667z" fill="#515151" p-id="2734"></path><path d="M629.333333 458.666667c0 23.466667 19.2 42.666667 42.666667 42.666666h192c23.466667 0 42.666667-19.2 42.666667-42.666666s-19.2-42.666667-42.666667-42.666667h-192c-23.466667 0-42.666667 19.2-42.666667 42.666667zM864 565.333333h-192c-23.466667 0-42.666667 19.2-42.666667 42.666667s19.2 42.666667 42.666667 42.666667h192c23.466667 0 42.666667-19.2 42.666667-42.666667s-19.2-42.666667-42.666667-42.666667zM864 714.666667h-192c-23.466667 0-42.666667 19.2-42.666667 42.666666s19.2 42.666667 42.666667 42.666667h192c23.466667 0 42.666667-19.2 42.666667-42.666667s-19.2-42.666667-42.666667-42.666666z" fill="#515151" p-id="2735"></path></svg>