<?xml version="1.0" standalone="no"?><!DOCTYPE svg PUBLIC "-//W3C//DTD SVG 1.1//EN" "http://www.w3.org/Graphics/SVG/1.1/DTD/svg11.dtd"><svg t="1702988151220" class="icon" viewBox="0 0 1024 1024" version="1.1" xmlns="http://www.w3.org/2000/svg" p-id="3432" xmlns:xlink="http://www.w3.org/1999/xlink" width="200" height="200"><path d="M842.667 128c53.019 0 96 42.98 96 96v576c0 53.02-42.981 96-96 96H181.333c-53.019 0-96-42.98-96-96V224c0-53.02 42.981-96 96-96h661.334z m0 64H181.333c-16.633 0-30.303 12.69-31.853 28.918l-0.147 3.082v576c0 16.634 12.691 30.303 28.919 31.854l3.081 0.146h661.334c16.633 0 30.303-12.69 31.853-28.918l0.147-3.082V224c0-16.634-12.691-30.303-28.919-31.854l-3.081-0.146zM725.333 618.667v64H298.667v-64h426.666z m-234.666-256v96c0 53.019-42.981 96-96 96-53.02 0-96-42.981-96-96 0-51.505 40.56-93.536 91.48-95.896l4.52-0.104h96z m234.666 128v64H576v-64h149.333z m-298.666-64h-32c-17.673 0-32 14.327-32 32 0 17.673 14.327 32 32 32 16.633 0 30.303-12.691 31.853-28.919l0.147-3.081v-32z m298.666-64v64H576v-64h149.333z" fill="#d81e06" p-id="3433"></path></svg>