<?xml version="1.0" standalone="no"?><!DOCTYPE svg PUBLIC "-//W3C//DTD SVG 1.1//EN" "http://www.w3.org/Graphics/SVG/1.1/DTD/svg11.dtd"><svg t="1702449813797" class="icon" viewBox="0 0 1024 1024" version="1.1" xmlns="http://www.w3.org/2000/svg" p-id="3641" xmlns:xlink="http://www.w3.org/1999/xlink" width="200" height="200"><path d="M343.893333 215.04m0 29.44l0 6.4q0 29.44-29.44 29.44l-71.68 0q-29.44 0-29.44-29.44l0-6.4q0-29.44 29.44-29.44l71.68 0q29.44 0 29.44 29.44Z" fill="#d81e06" p-id="3642"></path><path d="M834.133333 759.466667m0 32.426666l0 0.426667q0 32.426667-32.426666 32.426667l-46.08 0q-32.426667 0-32.426667-32.426667l0-0.426667q0-32.426667 32.426667-32.426666l46.08 0q32.426667 0 32.426666 32.426666Z" fill="#d81e06" p-id="3643"></path><path d="M113.493333 377.173333m0-30.72l0-3.84q0-30.72 30.72-30.72l726.186667 0q30.72 0 30.72 30.72l0 3.84q0 30.72-30.72 30.72l-726.186667 0q-30.72 0-30.72-30.72Z" fill="#d81e06" p-id="3644"></path><path d="M505.6 867.84H175.36A93.013333 93.013333 0 0 1 85.333333 771.84V203.093333a93.013333 93.013333 0 0 1 89.6-96h660.48a93.013333 93.013333 0 0 1 89.6 96v272.213334a32.426667 32.426667 0 0 1-64.853333 0V203.093333a28.586667 28.586667 0 0 0-24.746667-32.426666H175.36a28.586667 28.586667 0 0 0-24.32 30.72v570.453333a28.586667 28.586667 0 0 0 24.32 30.72h330.24a32.853333 32.853333 0 0 1 0 65.28z" fill="#d81e06" p-id="3645"></path><path d="M887.466667 922.88h-218.026667a51.2 51.2 0 0 1-50.773333-50.773333v-160a50.773333 50.773333 0 0 1 50.773333-50.773334h218.026667a50.773333 50.773333 0 0 1 51.2 50.773334v160a51.2 51.2 0 0 1-51.2 50.773333zM682.666667 857.6h189.013333V725.333333H682.666667z" fill="#d81e06" p-id="3646"></path><path d="M845.653333 689.493333a32.853333 32.853333 0 0 1-32.853333-32.853333c0-58.026667-19.2-58.026667-34.133333-58.026667s-34.56 0-34.56 58.026667a32.853333 32.853333 0 1 1-65.28 0c0-77.226667 37.12-123.306667 99.84-123.306667 37.12 0 99.413333 15.786667 99.413333 123.306667a32.853333 32.853333 0 0 1-32.426667 32.853333z" fill="#d81e06" p-id="3647"></path></svg>