<?xml version="1.0" standalone="no"?><!DOCTYPE svg PUBLIC "-//W3C//DTD SVG 1.1//EN" "http://www.w3.org/Graphics/SVG/1.1/DTD/svg11.dtd"><svg t="1701855996049" class="icon" viewBox="0 0 1024 1024" version="1.1" xmlns="http://www.w3.org/2000/svg" p-id="1022" xmlns:xlink="http://www.w3.org/1999/xlink" width="200" height="200"><path d="M762.311111 796.444444H284.444444a34.133333 34.133333 0 0 1-34.133333-34.133333V261.688889a34.133333 34.133333 0 0 1 34.133333-34.133333h391.076978a11.377778 11.377778 0 0 1 8.840534 4.221155l109.556622 135.463822a11.377778 11.377778 0 0 1 2.525866 7.156623V762.311111a34.133333 34.133333 0 0 1-34.133333 34.133333z m1.3312-22.8352A11.377778 11.377778 0 0 0 773.688889 762.311111V378.424889l-103.594667-128.1024L284.444444 250.311111a11.377778 11.377778 0 0 0-11.377777 11.377778v500.622222a11.377778 11.377778 0 0 0 11.377777 11.377778h477.866667l1.3312-0.079645z" fill="#000000" p-id="1023"></path><path d="M778.433422 386.844444a11.377778 11.377778 0 0 0 1.319822-22.675911L778.433422 364.088889h-102.4V238.933333a11.377778 11.377778 0 0 0-22.687289-1.3312l-0.068266 1.3312v125.155556a22.755556 22.755556 0 0 0 21.048889 22.698667l1.706666 0.056888h102.4z" fill="#000000" p-id="1024"></path><path d="M688.5376 699.733333a11.377778 11.377778 0 0 0 1.3312-22.675911l-1.3312-0.079644H358.217956a11.377778 11.377778 0 0 0-1.3312 22.675911l1.3312 0.079644h330.319644z m-68.152889-79.644444a11.377778 11.377778 0 0 0 1.3312-22.675911l-1.3312-0.079645H426.370844a11.377778 11.377778 0 0 0-1.3312 22.675911l1.3312 0.079645h194.013867zM523.377778 329.955556a68.266667 68.266667 0 0 1 41.3696 122.5728c28.273778 13.425778 48.605867 42.052267 60.609422 84.844088a11.377778 11.377778 0 1 1-21.9136 6.144C588.765867 491.144533 562.460444 466.488889 523.377778 466.488889c-38.183822 0-58.481778 23.415467-62.611911 74.865778a11.377778 11.377778 0 1 1-22.687289-1.820445c3.4816-43.269689 18.523022-72.635733 44.555378-86.539378A68.266667 68.266667 0 0 1 523.377778 329.955556z m0 22.755555a45.511111 45.511111 0 1 0 0 91.022222 45.511111 45.511111 0 0 0 0-91.022222z" fill="#C8132C" p-id="1025"></path></svg>