<?xml version="1.0" standalone="no"?><!DOCTYPE svg PUBLIC "-//W3C//DTD SVG 1.1//EN" "http://www.w3.org/Graphics/SVG/1.1/DTD/svg11.dtd"><svg t="1701856019802" class="icon" viewBox="0 0 1024 1024" version="1.1" xmlns="http://www.w3.org/2000/svg" p-id="1342" xmlns:xlink="http://www.w3.org/1999/xlink" width="200" height="200"><path d="M284.444444 796.444444a34.133333 34.133333 0 0 1-34.133333-34.133333V261.688889a34.133333 34.133333 0 0 1 34.133333-34.133333h477.866667a34.133333 34.133333 0 0 1 34.133333 34.133333v387.913955a11.377778 11.377778 0 0 1-2.525866 7.168l-109.556622 135.452445a11.377778 11.377778 0 0 1-8.840534 4.221155z m477.866667-546.133333H284.444444a11.377778 11.377778 0 0 0-11.377777 11.377778v500.622222a11.377778 11.377778 0 0 0 11.377777 11.377778h368.822045V659.911111a22.755556 22.755556 0 0 1 21.060267-22.698667l1.706666-0.056888H773.688889V261.688889a11.377778 11.377778 0 0 0-8.760889-11.081956l-1.285689-0.227555L762.311111 250.311111z m-0.227555 409.6h-86.050134l-0.011378 106.427733L762.083556 659.911111z" fill="#000000" p-id="1343"></path><path d="M527.928889 653.653333a11.377778 11.377778 0 0 0 1.3312-22.675911l-1.3312-0.079644H364.088889a11.377778 11.377778 0 0 0-1.3312 22.675911l1.3312 0.079644h163.84zM688.5376 381.155556a11.377778 11.377778 0 0 1 1.3312 22.675911l-1.3312 0.079644H358.217956a11.377778 11.377778 0 0 1-1.3312-22.675911l1.3312-0.079644h330.319644z m-11.264 125.155555a11.377778 11.377778 0 0 1 1.3312 22.675911l-1.3312 0.079645H358.104178a11.377778 11.377778 0 0 1-1.3312-22.675911l1.3312-0.079645h319.169422z" fill="#C8132C" p-id="1344"></path></svg>