<?xml version="1.0" standalone="no"?><!DOCTYPE svg PUBLIC "-//W3C//DTD SVG 1.1//EN" "http://www.w3.org/Graphics/SVG/1.1/DTD/svg11.dtd"><svg t="1702988386768" class="icon" viewBox="0 0 1024 1024" version="1.1" xmlns="http://www.w3.org/2000/svg" p-id="3852" xmlns:xlink="http://www.w3.org/1999/xlink" width="200" height="200"><path d="M831.9 682.6V181.3c0-17.7-14.3-32-32-32H224c-17.7 0-32 14.3-32 32v661.2c0 17.7 14.3 32 32 32h415.9v-128c0-35.3 28.6-64 64-64h128z m-45.3 63.9h-82.7v82.7l82.7-82.7zM224 85.3h575.9c53 0 96 43 96 96v520c0 17-6.7 33.2-18.7 45.2L703.9 919.8c-12 12-28.3 18.7-45.2 18.7H224c-53 0-96-43-96-96V181.3c0-53 43-96 96-96z m181.3 358.5L373 472l-42.1-48.2 138.4-121.1v358.5h-64V443.8z m224.2 76.4l32.3-28.2 42.1 48.2-138.4 121V302.8h64v217.4z" p-id="3853" fill="#d81e06"></path></svg>