<?xml version="1.0" standalone="no"?><!DOCTYPE svg PUBLIC "-//W3C//DTD SVG 1.1//EN" "http://www.w3.org/Graphics/SVG/1.1/DTD/svg11.dtd"><svg t="1702988286105" class="icon" viewBox="0 0 1024 1024" version="1.1" xmlns="http://www.w3.org/2000/svg" p-id="3638" xmlns:xlink="http://www.w3.org/1999/xlink" width="200" height="200"><path d="M831.87 682.56V181.305c0-17.67-14.325-31.995-31.995-31.995h-575.91c-17.67 0-31.995 14.325-31.995 31.995v661.23c0 17.67 14.325 31.995 31.995 31.995H639.9V746.55c0-35.34 28.65-63.99 63.99-63.99h127.98z m-45.248 63.99H703.89v82.732l82.732-82.732zM223.965 85.32h575.91c53.011 0 95.985 42.974 95.985 95.985v519.997a63.99 63.99 0 0 1-18.742 45.248L703.89 919.778a63.99 63.99 0 0 1-45.248 18.742H223.965c-53.011 0-95.985-42.974-95.985-95.985v-661.23c0-53.011 42.974-95.985 95.985-95.985z m217.79 437.265l-26.543 0.007c21.727 26.296 54.532 42.653 90.525 42.653 52.246 0 97.775-34.466 112.456-83.764l61.328 18.263c-22.705 76.247-93.04 129.491-173.784 129.491-80.745 0-151.08-53.244-173.785-129.491l-12.243-41.115 122.029-0.034 0.018 63.99z m127.972-149.311h26.54c-21.727-26.299-54.534-42.659-90.53-42.659-52.253 0-97.787 34.475-112.461 83.78l-61.332-18.253c22.697-76.26 93.038-129.517 173.793-129.517 80.754 0 151.095 53.257 173.792 129.517l12.239 41.122H569.727v-63.99z" fill="#d81e06" p-id="3639"></path></svg>