<?xml version="1.0" standalone="no"?><!DOCTYPE svg PUBLIC "-//W3C//DTD SVG 1.1//EN" "http://www.w3.org/Graphics/SVG/1.1/DTD/svg11.dtd"><svg t="1702989265092" class="icon" viewBox="0 0 1024 1024" version="1.1" xmlns="http://www.w3.org/2000/svg" p-id="4860" xmlns:xlink="http://www.w3.org/1999/xlink" width="200" height="200"><path d="M319.95 479.925h383.94v63.99H319.95v-63.99zM639.9 106.65h181.305c53.011 0 95.985 42.974 95.985 95.985V383.94h-64.033l0.043-181.305c0-16.63-12.689-30.298-28.914-31.849l-184.386-0.043V106.65z m-255.96 0v64.033l-181.305-0.043c-16.63 0-30.298 12.689-31.849 28.914l-0.043 184.386H106.65V202.635c0-53.011 42.974-95.985 95.985-95.985H383.94zM639.9 917.19v-64.033l181.305 0.043c16.63 0 30.298-12.689 31.849-28.914l0.043-184.386h64.093v181.305c0 53.011-42.974 95.985-95.985 95.985H639.9z m-255.96 0H202.635c-53.011 0-95.985-42.974-95.985-95.985V639.9h64.033l-0.043 181.305c0 16.63 12.689 30.298 28.914 31.849l184.386 0.043v64.093z" fill="#d81e06" p-id="4861"></path></svg>