<?xml version="1.0" standalone="no"?><!DOCTYPE svg PUBLIC "-//W3C//DTD SVG 1.1//EN" "http://www.w3.org/Graphics/SVG/1.1/DTD/svg11.dtd"><svg t="1701856002131" class="icon" viewBox="0 0 1024 1024" version="1.1" xmlns="http://www.w3.org/2000/svg" p-id="1182" xmlns:xlink="http://www.w3.org/1999/xlink" width="200" height="200"><path d="M731.431822 307.2A53.634844 53.634844 0 0 1 785.066667 360.834844v342.152534a53.634844 53.634844 0 0 1-53.634845 53.634844H247.057067A53.634844 53.634844 0 0 1 193.422222 702.987378V360.834844A53.634844 53.634844 0 0 1 247.057067 307.2z m0 22.755556H247.057067A30.879289 30.879289 0 0 0 216.177778 360.834844v342.152534c0 17.055289 13.824 30.879289 30.879289 30.879289h484.374755c17.055289 0 30.879289-13.824 30.879289-30.879289V360.834844C762.311111 343.779556 748.487111 329.955556 731.431822 329.955556z" fill="#000000" p-id="1183"></path><path d="M785.066667 250.311111a56.888889 56.888889 0 0 1 56.832 54.419911L841.955556 307.2v354.952533c0 20.036267-15.689956 36.408889-35.441778 37.523911l-2.139022 0.056889v-22.755555c7.68 0 13.994667-5.8368 14.7456-13.312l0.079644-1.513245V307.2a34.133333 34.133333 0 0 0-32.130844-34.076444L785.066667 273.066667H289.416533c-8.4992 0-15.473778 6.485333-16.270222 14.779733l-0.079644 1.570133h-22.755556a39.105422 39.105422 0 0 1 36.9664-39.048533l2.139022-0.056889H785.066667z" fill="#000000" p-id="1184"></path><path d="M409.964089 389.711644c7.020089-6.223644 17.931378-1.729422 18.864355 7.259023l0.068267 1.251555-0.011378 57.4464 230.991645-0.568889a11.377778 11.377778 0 0 1 11.332266 10.0352l0.079645 1.3312V523.377778a11.377778 11.377778 0 0 1-10.046578 11.298133L659.911111 534.755556H364.088889v33.530311h242.392178a11.377778 11.377778 0 0 1 11.309511 10.057955l0.068266 1.319822v39.901867l33.712356-36.260978a11.377778 11.377778 0 0 1 14.984533-1.501866l1.103645 0.910222a11.377778 11.377778 0 0 1 1.490489 14.973155l-0.910223 1.103645-53.418666 57.491911c-6.747022 7.259022-18.659556 2.980978-19.649422-6.485333L595.103289 648.533333v-57.491911H352.711111a11.377778 11.377778 0 0 1-11.298133-10.046578L341.333333 579.663644V523.377778a11.377778 11.377778 0 0 1 10.046578-11.298134L352.711111 512h295.822222v-34.121956l-230.991644 0.591645a11.377778 11.377778 0 0 1-11.332267-10.057956l-0.068266-1.319822-0.011378-43.565511-45.863822 40.698311a11.377778 11.377778 0 0 1-15.0528 0.045511l-1.024-1.012622a11.377778 11.377778 0 0 1-0.034134-15.041422l1.001245-1.024 64.807822-57.480534z" fill="#C8132C" p-id="1185"></path></svg>