<?xml version="1.0" standalone="no"?><!DOCTYPE svg PUBLIC "-//W3C//DTD SVG 1.1//EN" "http://www.w3.org/Graphics/SVG/1.1/DTD/svg11.dtd"><svg t="1702987939192" class="icon" viewBox="0 0 1024 1024" version="1.1" xmlns="http://www.w3.org/2000/svg" p-id="3008" xmlns:xlink="http://www.w3.org/1999/xlink" width="200" height="200"><path d="M480 554.667V512h-96v-64h82.745l-84.04-84.04 45.256-45.254L512 402.746l84.04-84.04 45.254 45.255L557.254 448H640v64h-96v42.667h96v64h-96V704h-64v-85.333h-96v-64h96zM256.002 661.333l-74.623 0.005C239.066 789.078 367.236 874.667 512 874.667c159.935 0 299.615-104.467 346.373-254.829l61.114 19.005C864.464 815.783 700.157 938.667 512 938.667S159.536 815.782 104.513 638.843l-12.905-41.5 164.39-0.01 0.004 64z m512.002-298.666l74.623 0.009C784.943 234.928 656.77 149.333 512 149.333c-159.942 0-299.628 104.477-346.38 254.849l-61.114-19.001C159.522 208.229 323.834 85.333 512 85.333c188.166 0 352.478 122.896 407.494 299.848l12.904 41.505-164.402-0.02 0.008-64z" fill="#d81e06" p-id="3009"></path></svg>